# File created by Blade
# Date/Time:  Tue Jan 27 17:27:44 2015
#---------------------------------------------------------
:version 1.10
:name HOM
:units
  mass 1.0
  length 1.000000
  angle deg
:documentation
     Acclaim Skeleton File
:root
   axis xyz
   order TX TY TZ RX RY RZ
   position 0.000000 0.000000 0.000000
   orientation 0 0 0
:bonedata
   begin
      id 1
      name Spine_dum
      direction 0.000000 1.000000 0.000000
      length 7.539951
      axis 0.0 0.0 0.0 xyz
   end
   begin
      id 2
      name LeftUpLeg_dum
      direction 1.000000 0.000000 0.000000
      length 3.345476
      axis 0.0 0.0 0.0 xyz
   end
   begin
      id 3
      name RightUpLeg_dum
      direction -1.000000 0.000000 0.000000
      length 3.345476
      axis 0.0 0.0 0.0 xyz
   end
   begin
      id 4
      name Spine
      direction 0.000000 1.000000 0.000000
      length 0.000000
      axis 0.0 0.0 0.0 xyz
      dof rx ry rz
   end
   begin
      id 5
      name Spine_dum1
      direction 0.000000 1.000000 0.000000
      length 15.093809
      axis 0.0 0.0 0.0 xyz
   end
   begin
      id 6
      name Spine_dum2
      direction 0.000000 1.000000 0.000000
      length 9.738928
      axis 0.0 0.0 0.0 xyz
   end
   begin
      id 7
      name Spine_dum3
      direction 0.000000 1.000000 0.000000
      length 9.738928
      axis 0.0 0.0 0.0 xyz
   end
   begin
      id 8
      name Head
      direction 0.000000 1.000000 0.000000
      length 4.527550
      axis 0.0 0.0 0.0 xyz
      dof rx ry rz
   end
   begin
      id 9
      name LeftShoulder
      direction 1.000000 0.000000 0.000000
      length 7.084015
      axis 0.0 0.0 -90.0 xyz
      dof rx ry rz
   end
   begin
      id 10
      name LeftArm
      direction 1.000000 0.000000 0.000000
      length 10.259319
      axis 0.0 0.0 -90.0 xyz
      dof rx ry rz
   end
   begin
      id 11
      name LeftForeArm
      direction 1.000000 0.000000 0.000000
      length 9.896984
      axis 0.0 0.0 -90.0 xyz
      dof ry rz rx
   end
   begin
      id 12
      name LeftHand
      direction 0.000000 0.000000 0.000000
      length 0.000000
      axis 0.0 0.0 -90.0 xyz
      dof rx ry rz
   end
   begin
      id 13
      name LeftHand_dum1
      direction 0.000000 0.000000 0.000000
      length 0.000000
      axis 0.0 0.0 -90.0 xyz
   end
   begin
      id 14
      name LeftHand_dum2
      direction 1.000000 0.000000 0.000000
      length 3.937000
      axis 0.0 0.0 -90.0 xyz
   end
   begin
      id 15
      name LeftHandThumb1
      direction 0.000000 0.000000 1.000000
      length 3.937000
      axis 0.0 0.0 -90.0 xyz
      dof rx rz ry
   end
   begin
      id 16
      name RightShoulder
      direction -1.000000 0.000000 0.000000
      length 7.084015
      axis 0.0 0.0 90.0 xyz
      dof rx ry rz
   end
   begin
      id 17
      name RightArm
      direction -1.000000 0.000000 0.000000
      length 10.259319
      axis 0.0 0.0 90.0 xyz
      dof rx ry rz
   end
   begin
      id 18
      name RightForeArm
      direction -1.000000 0.000000 0.000000
      length 9.896984
      axis 0.0 0.0 90.0 xyz
      dof ry rz rx
   end
   begin
      id 19
      name RightHand
      direction 0.000000 0.000000 0.000000
      length 0.000000
      axis 0.0 0.0 90.0 xyz
      dof rx ry rz
   end
   begin
      id 20
      name RightHand_dum1
      direction 0.000000 0.000000 0.000000
      length 0.000000
      axis 0.0 0.0 90.0 xyz
   end
   begin
      id 21
      name RightHand_dum2
      direction -1.000000 0.000000 0.000000
      length 3.937000
      axis 0.0 0.0 90.0 xyz
   end
   begin
      id 22
      name RightHandThumb1
      direction 0.000000 0.000000 1.000000
      length 3.937000
      axis 0.0 0.0 90.0 xyz
      dof rx rz ry
   end
   begin
      id 23
      name LeftUpLeg
      direction 0.000000 -1.000000 0.000000
      length 19.114733
      axis 0.0 0.0 0.0 xyz
      dof rx ry rz
   end
   begin
      id 24
      name LeftLeg
      direction 0.000000 -1.000000 0.000000
      length 16.045604
      axis 0.0 0.0 0.0 xyz
      dof rx ry rz
   end
   begin
      id 25
      name LeftFoot
      direction 0.000000 -0.258819 0.965926
      length 5.543155
      axis 15.0 0.0 0.0 xyz
      dof rx ry rz
   end
   begin
      id 26
      name LeftToeBase
      direction 0.000000 0.000000 1.000000
      length 2.952750
      axis 0.0 0.0 0.0 xyz
      dof rx ry rz
   end
   begin
      id 27
      name RightUpLeg
      direction 0.000000 -1.000000 0.000000
      length 19.114733
      axis 0.0 0.0 0.0 xyz
      dof rx ry rz
   end
   begin
      id 28
      name RightLeg
      direction 0.000000 -1.000000 0.000000
      length 16.045604
      axis 0.0 0.0 0.0 xyz
      dof rx ry rz
   end
   begin
      id 29
      name RightFoot
      direction 0.000000 -0.258819 0.965926
      length 5.543155
      axis 15.0 0.0 0.0 xyz
      dof rx ry rz
   end
   begin
      id 30
      name RightToeBase
      direction 0.000000 0.000000 1.000000
      length 2.952750
      axis 0.0 0.0 0.0 xyz
      dof rx ry rz
   end
:hierarchy
   begin
      root Spine_dum LeftUpLeg_dum RightUpLeg_dum
      Spine_dum Spine
      LeftUpLeg_dum LeftUpLeg
      RightUpLeg_dum RightUpLeg
      Spine Spine_dum1 Spine_dum2 Spine_dum3
      Spine_dum1 Head
      Spine_dum2 LeftShoulder
      Spine_dum3 RightShoulder
      LeftShoulder LeftArm
      LeftArm LeftForeArm
      LeftForeArm LeftHand
      LeftHand LeftHand_dum1 LeftHand_dum2
      LeftHand_dum1 LeftHandThumb1
      RightShoulder RightArm
      RightArm RightForeArm
      RightForeArm RightHand
      RightHand RightHand_dum1 RightHand_dum2
      RightHand_dum1 RightHandThumb1
      LeftUpLeg LeftLeg
      LeftLeg LeftFoot
      LeftFoot LeftToeBase
      RightUpLeg RightLeg
      RightLeg RightFoot
      RightFoot RightToeBase
   end

# File created by Blade
# Date/Time:  Tue Jan 27 17:27:32 2015
# Frame Rate: 120.000 fps
#------------------------------------------------------
:FULLY-SPECIFIED
:DEGREES
477
root 5.052270 36.960010 0.934753 2.356274 29.874132 -1.274491
Spine 4.060743 5.508660 0.275557
Head 10.418152 -10.574099 5.557774
LeftShoulder -5.409675 -9.899132 10.040121
LeftArm 2.192838 -14.981399 -54.967460
LeftForeArm 3.949046 -0.000000 99.032234
LeftHand -13.014509 -0.000000 31.775005
LeftHandThumb1 -26.253704 0.000000 33.147579
RightShoulder -9.425508 -19.994337 1.906635
RightArm 17.380895 -26.245091 57.203661
RightForeArm 183.476466 -0.000000 31.266460
RightHand 0.630831 -0.000000 0.699333
RightHandThumb1 -24.326973 -0.000000 -32.862282
LeftUpLeg -2.826319 -10.204836 -2.263469
LeftLeg 7.387425 -0.000000 -0.000000
LeftFoot -11.820956 -10.576864 -10.465847
LeftToeBase 12.529569 -0.000000 -0.000000
RightUpLeg -18.962712 12.412532 -5.635189
RightLeg 93.307667 -0.000000 -0.000000
RightFoot -4.770509 2.425828 4.626740
RightToeBase -1.065604 -0.000000 0.000000
478
root 5.055320 36.961954 0.938279 2.340616 29.866646 -1.299371
Spine 4.066609 5.495503 0.263488
Head 10.381584 -10.607964 5.594139
LeftShoulder -5.416515 -9.919767 10.092830
LeftArm 2.141471 -14.964219 -55.041993
LeftForeArm 4.016799 -0.000000 99.127819
LeftHand -13.083131 -0.000000 31.822529
LeftHandThumb1 -26.253704 0.000000 33.147579
RightShoulder -9.436502 -20.008590 1.938872
RightArm 17.375869 -26.251353 57.214562
RightForeArm 183.500715 0.000000 31.216346
RightHand 0.623684 -0.000000 0.573884
RightHandThumb1 -24.326973 -0.000000 -32.862282
LeftUpLeg -2.805482 -10.191162 -2.242980
LeftLeg 7.367218 -0.000000 -0.000000
LeftFoot -11.819821 -10.602653 -10.506628
LeftToeBase 12.606795 -0.000000 -0.000000
RightUpLeg -18.976388 12.404969 -5.610393
RightLeg 93.280601 -0.000000 -0.000000
RightFoot -4.794878 2.414453 4.595153
RightToeBase -1.013459 -0.000000 0.000000
479
root 5.058187 36.963885 0.940896 2.325760 29.867175 -1.322386
Spine 4.076217 5.473590 0.254658
Head 10.362122 -10.633346 5.606674
LeftShoulder -5.408915 -9.942426 10.121755
LeftArm 2.079834 -14.945615 -55.074238
LeftForeArm 4.053566 -0.000000 99.231919
LeftHand -13.127111 -0.000000 31.902596
LeftHandThumb1 -26.253704 0.000000 33.147579
RightShoulder -9.441621 -20.005659 1.958906
RightArm 17.363820 -26.273961 57.238571
RightForeArm 183.580434 -0.000000 31.150790
RightHand 0.607532 -0.000000 0.546086
RightHandThumb1 -24.326973 -0.000000 -32.862282
LeftUpLeg -2.791179 -10.158992 -2.220507
LeftLeg 7.355143 -0.000000 -0.000000
LeftFoot -11.807788 -10.676842 -10.567527
LeftToeBase 12.719477 -0.000000 -0.000000
RightUpLeg -18.995587 12.388276 -5.582630
RightLeg 93.262314 -0.000000 -0.000000
RightFoot -4.802579 2.420090 4.632270
RightToeBase -0.868258 -0.000000 0.000000
480
root 5.060045 36.965931 0.943160 2.314010 29.875949 -1.343972
Spine 4.089182 5.438921 0.242442
Head 10.321922 -10.644935 5.629212
LeftShoulder -5.413710 -9.981883 10.158334
LeftArm 2.005267 -14.931736 -55.114402
LeftForeArm 4.119953 0.000000 99.336849
LeftHand -13.114014 -0.000000 31.861404
LeftHandThumb1 -26.253704 0.000000 33.147579
RightShoulder -9.435467 -19.992457 1.972489
RightArm 17.327468 -26.278828 57.290333
RightForeArm 183.587393 -0.000000 31.097532
RightHand 0.606865 -0.000000 0.578328
RightHandThumb1 -24.326973 -0.000000 -32.862282
LeftUpLeg -2.779575 -10.137366 -2.196679
LeftLeg 7.342846 -0.000000 -0.000000
LeftFoot -11.792634 -10.763399 -10.669512
LeftToeBase 12.857368 -0.000000 -0.000000
RightUpLeg -19.018335 12.357100 -5.553428
RightLeg 93.243802 -0.000000 -0.000000
RightFoot -4.814426 2.427532 4.651653
RightToeBase -0.795892 -0.000000 0.000000
481
root 5.062093 36.967838 0.944142 2.305505 29.877824 -1.363544
Spine 4.101049 5.410629 0.235257
Head 10.279801 -10.640938 5.638861
LeftShoulder -5.410090 -10.007597 10.184110
LeftArm 1.946954 -14.933874 -55.155996
LeftForeArm 4.208964 0.000000 99.434884
LeftHand -13.124214 -0.000000 31.886351
LeftHandThumb1 -26.253704 0.000000 33.147579
RightShoulder -9.425842 -19.985672 1.970566
RightArm 17.302324 -26.278843 57.353778
RightForeArm 183.551148 -0.000000 31.031051
RightHand 0.654557 0.000000 0.633335
RightHandThumb1 -24.326973 -0.000000 -32.862282
LeftUpLeg -2.772182 -10.100677 -2.176206
LeftLeg 7.341074 -0.000000 -0.000000
LeftFoot -11.766380 -10.843470 -10.489028
LeftToeBase 12.654520 -0.000000 -0.000000
RightUpLeg -19.049050 12.347102 -5.523983
RightLeg 93.225599 -0.000000 -0.000000
RightFoot -4.820488 2.437520 4.683377
RightToeBase -0.905426 -0.000000 0.000000
482
root 5.063845 36.969628 0.944394 2.298209 29.903902 -1.384995
Spine 4.109358 5.357113 0.232648
Head 10.240834 -10.627315 5.642705
LeftShoulder -5.407765 -10.048052 10.207407
LeftArm 1.869402 -14.930301 -55.195856
LeftForeArm 4.288209 -0.000000 99.541456
LeftHand -13.129962 -0.000000 31.862101
LeftHandThumb1 -26.253704 0.000000 33.147579
RightShoulder -9.417940 -19.972697 1.969303
RightArm 17.275935 -26.273783 57.415564
RightForeArm 183.462907 0.000000 30.961455
RightHand 0.679861 -0.000000 0.707241
RightHandThumb1 -24.326973 -0.000000 -32.862282
LeftUpLeg -2.773517 -10.082112 -2.146748
LeftLeg 7.327099 -0.000000 -0.000000
LeftFoot -11.766733 -10.961295 -10.806361
LeftToeBase 13.118799 -0.000000 -0.000000
RightUpLeg -19.078568 12.304472 -5.490446
RightLeg 93.199964 -0.000000 -0.000000
RightFoot -4.749980 2.406125 4.515288
RightToeBase -1.295449 -0.000000 0.000000
483
root 5.065869 36.971079 0.944651 2.291274 29.914993 -1.399084
Spine 4.123482 5.322826 0.220593
Head 10.192349 -10.620939 5.647644
LeftShoulder -5.404931 -10.042677 10.230023
LeftArm 1.842214 -14.947418 -55.245557
LeftForeArm 4.351717 -0.000000 99.646076
LeftHand -13.147671 -0.000000 31.835187
LeftHandThumb1 -26.253704 0.000000 33.147579
RightShoulder -9.418009 -19.980973 1.977345
RightArm 17.270229 -26.249158 57.466087
RightForeArm 183.410144 0.000000 30.900777
RightHand 0.668923 -0.000000 0.658531
RightHandThumb1 -24.326973 -0.000000 -32.862282
LeftUpLeg -2.769254 -10.061254 -2.127108
LeftLeg 7.319601 -0.000000 -0.000000
LeftFoot -11.749072 -11.054167 -10.869545
LeftToeBase 13.209113 -0.000000 -0.000000
RightUpLeg -19.109936 12.285653 -5.461447
RightLeg 93.180225 -0.000000 -0.000000
RightFoot -4.749366 2.434014 4.608713
RightToeBase -1.160690 -0.000000 0.000000
484
root 5.067541 36.972831 0.944682 2.283743 29.934896 -1.414507
Spine 4.138465 5.282542 0.209742
Head 10.162762 -10.621495 5.635051
LeftShoulder -5.397199 -10.058219 10.222785
LeftArm 1.816959 -14.969854 -55.277173
LeftForeArm 4.393407 -0.000000 99.766693
LeftHand -13.212902 -0.000000 31.849467
LeftHandThumb1 -26.253704 0.000000 33.147579
RightShoulder -9.413469 -19.987151 1.987379
RightArm 17.256437 -26.245672 57.506866
RightForeArm 183.418032 -0.000000 30.856773
RightHand 0.686404 -0.000000 0.675743
RightHandThumb1 -24.326973 -0.000000 -32.862282
LeftUpLeg -2.766382 -10.036605 -2.108840
LeftLeg 7.314466 -0.000000 -0.000000
LeftFoot -11.739115 -11.134912 -10.920413
LeftToeBase 13.324295 -0.000000 -0.000000
RightUpLeg -19.137708 12.271485 -5.427871
RightLeg 93.156761 -0.000000 -0.000000
RightFoot -4.762368 2.466747 4.810143
RightToeBase -0.961692 -0.000000 0.000000
485
root 5.069042 36.973793 0.944227 2.278428 29.958169 -1.422765
Spine 4.156782 5.250660 0.195591
Head 10.107603 -10.629379 5.639100
LeftShoulder -5.385130 -10.049601 10.236586
LeftArm 1.816404 -14.970524 -55.322995
LeftForeArm 4.424496 -0.000000 99.868941
LeftHand -13.267063 -0.000000 31.934867
LeftHandThumb1 -26.253704 0.000000 33.147579
RightShoulder -9.423795 -19.991700 2.002163
RightArm 17.250216 -26.253681 57.535471
RightForeArm 183.436503 -0.000000 30.816640
RightHand 0.658242 -0.000000 0.552537
RightHandThumb1 -24.326973 -0.000000 -32.862282
LeftUpLeg -2.765701 -10.019936 -2.098700
LeftLeg 7.317507 -0.000000 -0.000000
LeftFoot -11.741221 -11.221002 -10.986127
LeftToeBase 13.466738 -0.000000 -0.000000
RightUpLeg -19.164724 12.270535 -5.396077
RightLeg 93.128392 -0.000000 -0.000000
RightFoot -4.798358 2.428512 4.736494
RightToeBase -1.011089 -0.000000 0.000000
486
root 5.070151 36.973971 0.943397 2.270664 29.982168 -1.430445
Spine 4.181884 5.220324 0.177810
Head 10.032249 -10.604505 5.674665
LeftShoulder -5.368886 -10.047373 10.260640
LeftArm 1.810599 -14.972546 -55.374220
LeftForeArm 4.512016 -0.000000 99.967504
LeftHand -13.349159 -0.000000 32.009819
LeftHandThumb1 -26.253704 0.000000 33.147579
RightShoulder -9.424451 -20.005417 2.010299
RightArm 17.236762 -26.240161 57.582532
RightForeArm 183.410208 -0.000000 30.789483
RightHand 0.660554 -0.000000 0.596331
RightHandThumb1 -24.326973 -0.000000 -32.862282
LeftUpLeg -2.769142 -10.017944 -2.087928
LeftLeg 7.326004 -0.000000 -0.000000
LeftFoot -11.737499 -11.289395 -11.065899
LeftToeBase 13.592287 -0.000000 -0.000000
RightUpLeg -19.193956 12.264543 -5.360004
RightLeg 93.108020 -0.000000 -0.000000
RightFoot -4.812863 2.411606 4.683578
RightToeBase -1.068202 -0.000000 0.000000
487
root 5.071899 36.973957 0.942084 2.265280 29.992800 -1.434485
Spine 4.202968 5.205554 0.161657
Head 9.997171 -10.605989 5.667025
LeftShoulder -5.355379 -10.025194 10.271139
LeftArm 1.835235 -14.995307 -55.436730
LeftForeArm 4.589186 -0.000000 100.057810
LeftHand -13.400266 -0.000000 32.018075
LeftHandThumb1 -26.253704 0.000000 33.147579
RightShoulder -9.423993 -20.026135 2.012682
RightArm 17.231926 -26.252510 57.613944
RightForeArm 183.360670 -0.000000 30.777680
RightHand 0.695518 -0.000000 0.579312
RightHandThumb1 -24.326973 -0.000000 -32.862282
LeftUpLeg -2.768055 -10.004428 -2.085723
LeftLeg 7.331343 -0.000000 -0.000000
LeftFoot -11.717779 -11.287553 -10.953877
LeftToeBase 13.405344 -0.000000 -0.000000
RightUpLeg -19.225828 12.273801 -5.331010
RightLeg 93.085644 -0.000000 -0.000000
RightFoot -4.827493 2.385915 4.663629
RightToeBase -1.057260 -0.000000 0.000000
488
root 5.072315 36.973252 0.941565 2.256368 30.012727 -1.442108
Spine 4.225357 5.194932 0.141455
Head 9.952709 -10.617821 5.692932
LeftShoulder -5.338756 -10.008154 10.301758
LeftArm 1.855181 -14.995024 -55.505604
LeftForeArm 4.656345 0.000000 100.140460
LeftHand -13.402395 -0.000000 32.055013
LeftHandThumb1 -26.253704 0.000000 33.147579
RightShoulder -9.434341 -20.041169 2.026090
RightArm 17.220719 -26.269486 57.639397
RightForeArm 183.340102 0.000000 30.768810
RightHand 0.714583 -0.000000 0.582928
RightHandThumb1 -24.326973 -0.000000 -32.862282
LeftUpLeg -2.770276 -10.006969 -2.077423
LeftLeg 7.347094 -0.000000 -0.000000
LeftFoot -11.730395 -11.316933 -10.954901
LeftToeBase 13.411916 -0.000000 -0.000000
RightUpLeg -19.253393 12.287941 -5.293142
RightLeg 93.058010 -0.000000 -0.000000
RightFoot -4.782775 2.363469 4.705534
RightToeBase -1.042869 -0.000000 0.000000
